<?xml version="1.0" encoding="UTF-8"?>
<svg id="Layer_1" xmlns="http://www.w3.org/2000/svg" version="1.1" viewBox="0 0 841.9 595.3">
  <!-- Generator: Adobe Illustrator 30.3.0, SVG Export Plug-In . SVG Version: 2.1.3 Build 182)  -->
  <path d="M560.2,84.9l-82.3,85.5-25.4,4.6,1.9,22.4-123.3,127.2c-25.4.9-44.9.3-70.7,10.1l54,7.4-54.6,59.1-46-47.8,15.7-6.6c-32.2,1.9-49.8-22-55.6-50.4l-4.1-19.9-6.2,30.2-63.9-64.9,40.4-38.9,30.4-32.4,87.6,87.9,16.4-18.1,11.8.3c2.7,0,1.7-11,1.1-14.6l79.4-87.8,77.2-33.9-54.6,5.5L483.1,8.9l48.3,49.6,28.8,26.3"/>
</svg>