<?xml version="1.0" encoding="UTF-8"?>
<svg id="Layer_1" xmlns="http://www.w3.org/2000/svg" version="1.1" viewBox="0 0 841.9 595.3">
  <!-- Generator: Adobe Illustrator 30.3.0, SVG Export Plug-In . SVG Version: 2.1.3 Build 182)  -->
  <path d="M560.2,84.9l-82.3,85.5-25.4,4.6,1.9,22.4-123.3,127.2c-25.4.9-44.9.3-70.7,10.1l54,7.4-54.6,59.1-46-47.8,15.7-6.6c-32.2,1.9-49.8-22-55.6-50.4l-4.1-19.9-6.2,30.2-63.9-64.9,40.4-38.9,30.4-32.4,87.6,87.9,16.4-18.1,11.8.3c2.7,0,1.7-11,1.1-14.6l79.4-87.8,77.2-33.9-54.6,5.5L483.1,8.9l48.3,49.6,28.8,26.3"/>
  <path d="M170.1,45.1c-3.6,7.7-5,15.3-4.8,29.1l-91.4.5-.6,224.9-42.9-8.5L0,250.1.9,23.4l15.5,8.4c1.4-1.4,6-6.1,4.8-6.7l-9.1-4.2c-1.9-.9-8.7-4.2-7.3-5.7l6.5-6.8c1.4-1.4,5.8,7,6.4,7.7L31.3,3c3.5-3.4,13.4,1.1,19.3,3.3l26.6-4.2,6.3,9.2c1,1.5,4.6-8.4,5.9-9.8l57.2-1.2,23.2,41.1.6-40.8,244.3-.7-70.9,74.4h-156.8c0-.1-16.9-29.3-16.9-29.3Z"/>
  <path d="M341.1,448.3c8.4,0,21.9,6.2,23.9,10,1.2,21.9,4.4,40.9,11.7,65.8l-375-.4L.2,313.6c.1-4.2,4.4-17.5,8.8-17.7s9.1,2.2,19.2,6.4c11.8-6.4,44.3.7,44.4,19.6l.8,126.4h267.7Z"/>
  <path d="M463.3,510.6c-14.4,6.5-31.9,7.9-45.3,4.1l-13.4,9.1c-3.8,2.6-33.7-41.7-32.9-74.5l78-1.3-.7-166.7,72.3-73-1.3,284.4-15.7-4c-2.6-.6-8.6,5.2-7.5,7.5l6.1,12.4-1.1,8.4c-.2,1.4-6.4,0-6.3-1.4l1-7.9-16.7,10.3c-3.9,2.4-13-4.2-16.5-7.6Z"/>
</svg>