<?xml version="1.0" encoding="UTF-8"?>
<svg id="Layer_1" xmlns="http://www.w3.org/2000/svg" version="1.1" viewBox="0 0 841.9 595.3">
  <!-- Generator: Adobe Illustrator 30.3.0, SVG Export Plug-In . SVG Version: 2.1.3 Build 182)  -->
  <path d="M619.1,258.5c17-23,35.2-23.7,59-61.9,2.7,61.3,2.5,105.9.3,166.6l-19.5,10,16.2,8.2c4.3,2.1,8.2,52.1-14.7,51.6l10.8,10.8c-34.1,24.9-69.1,48.1-107.2,68.8l-103.6,56.1-87.9-4.8-38.9-19.6-5-11.4c-1.2-2.6-9.2,0-13.1,1.1-51.8-27.5-103-58.9-150-96.9-7.9-90.6-5.9-176.1,0-265.4,2.5-1.8,8.5-5.6,7.5-7.1l-5.1-8.1c-1.2-1.9,3.2-7.4,5.4-6.8l13.2,3.5-2.7-14.2c-.7-3.6,8.1-11.2,10.3-8.2l4.8,6.5c.9,1.2,6.4-1.2,5.9-2.6l-3.2-8.7c54.6-35.4,117.9-67.3,175.8-98.9l43.8-23.9,51.6,29.2,32.7,17.7,47.5,25.6-40.3,44.8-22.8-10.3c-43.1-14.7-86.4-14.4-127.1,4.1l-15.7-2c-62.2,27.6-109.6,84.1-119.4,152.8l-7.3,35.7c-2.2,10.7,4.7,32,5.9,45.1,2,20.4,11.4,35.3,21.3,51.3,32.6,52.7,81.4,84.5,142.7,93.9,25.2,3.8,48.3,5.1,73.3-1.3,41.3-10.6,97.9-37.3,114.8-69.4,25-47.4,45.2-77.6,42.9-132.5-.3-6.8-8.5-20.9-2.4-29.2Z"/>
  <path d="M352.3,376.7c-11.3-12-14.9-17.5-24.4-35.7,2.7-5.9,0-.9-5,8.1l-53-56.8,58.2-62.9,78.5,80.9,97.3-110.4,58.7-27.2-36.3,1.5,82.6-85.4,65,63.9-69.8,74.4c-4.6,4.9-21.6,8.7-26.4,9.8l2.6,17.4-105.4,109.5-63.9,12,43.6,9-45.9,52.1-56.4-60.1Z"/>
</svg>