<?xml version="1.0" encoding="UTF-8"?>
<svg id="Layer_1" xmlns="http://www.w3.org/2000/svg" version="1.1" viewBox="0 0 841.9 595.3">
  <!-- Generator: Adobe Illustrator 30.3.0, SVG Export Plug-In . SVG Version: 2.1.3 Build 182)  -->
  <path d="M646.1,287.8l-26.4-8.1-13.9,8.2c2.7-60.3-26.7-112.8-71.7-151.7-10.1-8.8-15.1-11.4-28.7-16.5-40.4-15-87.2-25.3-127.8-13.4-3-.4-11.8-5.1-13.7-3.3-21.5,20.6-34.4,13.7-44.6,24.8-14.3,15.6-34.8,26.9-45.8,41.6-40.4,54-48.7,107-31.4,171.8,10.6,39.7,41.5,69.1,65.8,100.9,7.8,10.1,13.1,13.7,28.8,19-5.1,12.8-13.7,26.3-26.6,40.5-42.5-21.5-79-45.2-117.7-72.3s-12.3-10.8-12.7-22l-4.2-113.5,5-143.9c77.4-51.4,155.3-97.6,240.7-137.6,68.8,33.8,133.6,69.7,198,110.1,16.2,10.2,23.4,27.2,25,44l4.4,11.2c1,2.5,8.3.8,13.5.8l-11.2,12.8,12.4,19.3c3,4.6-1.5,14.3-3,19.7,7.1,18,6.4,44.1.5,61.6l4.1,29.2-3.9,100.2-88.2,57.3c-48.4,31.5-99.3,57-152.1,80.3l-79.6-37.6c-12.3-5.8-14.5-18.1-8.6-29.7l16-31.6,9.7,9.6c1.9,1.9,6.9-3.5,9.4-5.5,29.1,7.5,61.7,13.7,91.9,5.4,54-14.8,101.9-47,127.3-97.1,12.8-25.2,16.1-51.7,21.5-80.9l37.8-4.1Z"/>
  <path d="M343.1,320.5c-1-14.9,4.8-23.6,21.2-35.3l-26.4-28.6c-2.6-2.8-3.1-14.9-3.5-19.8l-7.8,10-39.9-43.7,16.2-23.3,27.6,21-18.8-27,29.2-28.8,63.7,64.2,17.2,16.3,33.2-32.2c5.6,20.4-15.5,39.9-13.9,73.1,9.4-8,10.6-19.2,11.7-32.6l17.2-22.5,2.4-37.1,30.1-29.5,56.9,57-48.4,49.9-34.2,32.6c18.2,13.2,20.6,19.8,16.7,38.8l9.9-13,57,54.3-60.2,59.3-46.4-46.9-31.5-34.2-15.1,11.4-9.6-32.9-4.2,45.9-51.1,56.5-26.3-25.1,3.8-21.4-10.5,14.3-25.5-25.4,48.5-52.5,10.6,7.1Z"/>
</svg>