<?xml version="1.0" encoding="UTF-8"?>
<svg id="Layer_1" xmlns="http://www.w3.org/2000/svg" version="1.1" viewBox="0 0 841.9 595.3">
  <!-- Generator: Adobe Illustrator 30.3.0, SVG Export Plug-In . SVG Version: 2.1.3 Build 182)  -->
  <path d="M351.4,551.9l14.9-26c2.3-3.9-1.3-13.4-6.6-16.3l-36.8,43.2-321.2,1.2-.3-87.7.7-67.1,3.3-128.9c.5-18.9-1.6-34-2.1-53L0,88.3l38.6-48.5L.1,48V2.4c-.1,0,44.1-.3,44.1-.3l2.9,22.7L64.3,2.3,292.7,0l3.3,146.9,147.2-.6.8,244-36.8,49.1c-1,1.3-4.2,5.2-3.2,6.2l8.9,8.9,30.9-26.6-.8,125-91.6-1ZM216.8,165.9l.3-30.2-145.7.3.4,29.8,145,.2ZM372.5,239.8l-1.1-30.7-299.7,1,1.2,30.1,299.6-.3ZM372.6,313.7l.2-30.2-301.1-.7,1.4,30.8h299.5ZM86.3,368.9c.3-2.3,4.4-12,2.1-12.1l-15.1-1-1.2,32.8c3.9-.5,12-2.2,12.4-5.3l1.8-14.4ZM102.3,387.8l157.2.4-.4-32-159.4,1.1c-8.2,0-7.4,30.5,2.6,30.5Z"/>
  <polygon points="439.4 122 319.7 122.8 317.9 .4 439.4 122"/>
</svg>