<?xml version="1.0" encoding="UTF-8"?>
<svg id="Layer_1" xmlns="http://www.w3.org/2000/svg" version="1.1" viewBox="0 0 841.9 595.3">
  <!-- Generator: Adobe Illustrator 30.3.0, SVG Export Plug-In . SVG Version: 2.1.3 Build 182)  -->
  <path d="M654.6,583.2H160.3c-10.6-14.5-10.6-26.2-8.8-41.8,4.1-35.8,28.9-51.9.4-80.3l-3.3-35.6-1.4-167.2h544.8c0,0-2.8,63.9-2.8,63.9l-9.9,42,11.7,13.6,1.6,182.1c.2,16.9-21.3,23.3-38.2,23.3ZM539.3,339.3c-10.2-2.6-31-1.3-38.7,1.1l-4,39.2-152.6.5-4.9-39.2c-14-5.7-35.8-6.9-43.1,4.3-3,4.7-5.4,23.6-.8,26.8l15.8,10.8c.4,8.6,10.2,30.5,21,30.5h179.7c10.2,0,18.9-23.2,19.8-30.5,8.2-6.3,15.3-11.4,16.8-17.3,1.5-5.9-2.7-24.5-9-26.2Z"/>
  <polygon points="556.5 47.8 283.8 47.5 283 94 257.6 96.8 257.6 146.7 225.1 149.4 225.8 230.6 148.8 230.7 248.6 3.4 593.8 2.3 691.9 230.8 616.7 232.4 616.6 148.2 584.1 148.1 583.2 97 558.1 94.1 556.5 47.8"/>
  <polygon points="586 230.8 255 230.8 255.4 185.7 585.9 185.3 586 230.8"/>
  <polygon points="548.1 148.6 292.7 149.1 292.6 121.4 548.7 121.3 548.1 148.6"/>
  <polygon points="517.6 93.2 323.2 93.3 322.7 73.7 518 73.3 517.6 93.2"/>
</svg>