<?xml version="1.0" encoding="UTF-8"?>
<svg id="Layer_1" xmlns="http://www.w3.org/2000/svg" version="1.1" viewBox="0 0 841.9 595.3">
  <!-- Generator: Adobe Illustrator 30.3.0, SVG Export Plug-In . SVG Version: 2.1.3 Build 182)  -->
  <path d="M237.4,328.9l-18.2,34.6-13.6-14.1,5.8,24.4-29.4,47.5-45.3,13.6-1.1-7.2c-4.9,5.7-9.7,10.8-13.9,11.7l-70.1-32.5-15.2-49.9,33.9-53.6c7.1,5.2,10.3,11.9,16.8,22.5,3-14.8.2-27.1-6-39.7l11.4-19.9,7.1,10.7c-1.8-8.2-1.5-15.6,3.5-23.5l25.5-39.9,64.4-19.8,38.9,17.4-6.4,22.3-15.1,2.3c-15.4-15.8-23.9-16.1-55.7,10.1l-32.9,52.1c-.9,1.4-4.1,4.9-5.5,4.4l-7.5-2.7,1.7,15.6-27.1,42.1c-3,4.7-.1,17.9,5,20.1l44.2,19c15.1,6.5,26.8-13,32.6-22.4l20.6-33.2c13.7-6.5,22.2-10.8,51.7-11.8Z"/>
  <path d="M191.5,260.8l29.3,8,31.6-8.3,35.3-55.9,12.6,11.8-5.1-23.9,31.4-47.3-7.3-17.4-43.2-19.3c-6.4-.7-20.3,3.6-24.7,8.1l-29.8,37.9-57.2,14.6,23.1-31.9,11.8,16.6-2.9-26.4,28.6-43.6,40.7-11.4c4.3,4.7,12,5.8,14,1.2-7.5-1.7-7.6-3.1-3.2-4.7,3.2-1,8.3-2.4,8-1.4l-1.3,5.6c5.2-2.5,9.8-2.3,15.7.5l56.6,26.7,15.2,49.3-39.8,61.8-12.2-17.6c-6.2,14.9,7.3,22.4-6.8,45l-32.1,51.7-64,18.9-45.7-21,21.4-27.6Z"/>
</svg>