<?xml version="1.0" encoding="UTF-8"?>
<svg id="Layer_1" xmlns="http://www.w3.org/2000/svg" version="1.1" viewBox="0 0 841.9 595.3">
  <!-- Generator: Adobe Illustrator 30.3.0, SVG Export Plug-In . SVG Version: 2.1.3 Build 182)  -->
  <polyline points="25.2 390.9 174.7 390.8 175.2 542.8 26.5 544.1"/>
  <polyline points="500.9 65 236.1 66 236.2 37.6 500.8 36.5"/>
  <polyline points="479.3 158.8 310 158.3 310.3 129.8 479.2 129.4"/>
  <polyline points="501.2 425.7 231.6 426 231.7 396.5 501.1 397.1"/>
  <polyline points="501.2 292.1 231.6 292.4 231.7 262.9 501.1 263.5"/>
  <polygon points="432.4 113.3 235.8 114.6 235 85 433 83.6 432.4 113.3"/>
  <polygon points="408.5 250.3 232.8 248.4 231.6 219.3 408.2 221.7 408.5 250.3"/>
  <polyline points="34.3 92.3 56.5 64.9 86.9 94.4 174.3 .8 201.6 24 91 148.5 34.3 92.3"/>
  <polygon points="353.3 474.4 231.6 474.9 231.6 446.3 352.6 445.5 353.3 474.4"/>
  <polyline points="34.8 276.2 57.1 251.8 88.3 280 174.1 185.8 200.3 211.1 90.4 332.5 34.8 276.2"/>
  <polygon points="414.1 475.3 368.4 474 366.4 445.6 413.9 445.1 414.1 475.3"/>
  <polygon points="288 159.2 232.8 157.9 230.3 129.5 287.8 129.1 288 159.2"/>
</svg>