<?xml version="1.0" encoding="UTF-8"?>
<svg id="Layer_1" xmlns="http://www.w3.org/2000/svg" version="1.1" viewBox="0 0 841.9 595.3">
  <!-- Generator: Adobe Illustrator 30.3.0, SVG Export Plug-In . SVG Version: 2.1.3 Build 182)  -->
  <path d="M481.3,470.9l1.1-219.7-11.1-41c-8.4-25.1,7.7-50-7.6-56.9l205.7-77-.7,438.5-189.7,58.5,2.3-102.4Z"/>
  <path d="M102.6,354.9l18.6-28.4,29-1.7,2.6-18.6,34.9-63.7h109.6c0-.1-44.5,68.2-44.5,68.2,46-15,45.4-67.8,77.2-69.9l2-64.5,116.7,121.1-116.1,122.1-2.9-67.2-131.8.9,22.2-44.5,8.8-17.6c-27,9.2-35.9,41.9-64.4,62.8l-61.8,1Z"/>
  <path d="M556.7,83l-259.4.5.5,116.1-38.8-.5.2-148.5,19.1-2.3,7.6,8.8c20.7-24.5,38.2-.5,57.2-12.1h307.9s-94.2,38.1-94.2,38.1Z"/>
  <polygon points="447.6 493.3 447.3 532.3 259.9 531.9 258.9 392.6 298 390.3 296.6 493.6 447.6 493.3"/>
</svg>