<?xml version="1.0" encoding="UTF-8"?>
<svg id="Layer_1" xmlns="http://www.w3.org/2000/svg" version="1.1" viewBox="0 0 841.9 595.3">
  <!-- Generator: Adobe Illustrator 30.3.0, SVG Export Plug-In . SVG Version: 2.1.3 Build 182)  -->
  <path d="M336.9,344.7l18.6-28.4,29-1.7,2.6-18.6,34.9-63.7h109.6c0-.1-44.5,68.2-44.5,68.2,46-15,45.4-67.8,77.2-69.9l2-64.5,116.7,121.1-116.1,122.1-2.9-67.2-131.8.9,22.2-44.5,8.8-17.6c-27,9.2-35.9,41.9-64.4,62.8l-61.8,1Z"/>
  <polygon points="176.8 531.7 148.9 521.5 106.1 508 106.4 35.8 326.7 114.3 326.5 588.3 176.8 531.7"/>
  <path d="M482.4,188.3l-.2-129.4-233.1.2c-35.9-14.2-70.2-22.7-103.5-42.5l382.6-1.3v173.1s-45.9,0-45.9,0Z"/>
  <path d="M365.8,543.2l-.3-42.7h116.7s.1-124.3.1-124.3l45.1-1.5,1.7,157.2c-5.5,5-20.4,11.6-27.7,11.6l-135.6-.3Z"/>
</svg>