<?xml version="1.0" encoding="UTF-8"?>
<svg id="Layer_1" xmlns="http://www.w3.org/2000/svg" version="1.1" viewBox="0 0 841.9 595.3">
  <!-- Generator: Adobe Illustrator 30.3.0, SVG Export Plug-In . SVG Version: 2.1.3 Build 182)  -->
  <path d="M410.4,413.3c-4.4,19.2-2.9,37,1.6,61.8l-93.3,56.3-75,1.6-152.7-92,18.8-71,116.1-47c.8-11.1,1.8-27.1-2-34.4-16.9-31.5-12.8-44.8-28.1-55.7-5.9-9.6-8.1-34.4-4.7-45.3l9.3-29.9c-8.8-33.4,13.6-59,42.5-67.5,2.1,2.5,5.5,7.3,6.5,5.9,16-20.9,44.4-17.9,71.6-4.9,27.6,13.1,42.5,34.2,38.2,67.2-2.4,18.2,22.4,32.6,4.2,74.1-7.5,7.8-14.2,13.5-15.4,24.6-3,26-24.3,31.9-14.1,64.4l42.6,19.6,11,51.9c4.6-18.3,4.5-27.2,5.2-45.1l55.8,21.2,20.9,71.7-53.8,32.3c-.5-20.4,2-34.5-5.3-59.6Z"/>
  <polygon points="279 32.4 144.5 110.7 144.4 267.7 208.4 306.8 178.2 321.9 116.7 284 116.4 93.4 277.9 0 441.5 92.9 441.9 282.9 382.8 321.4 353.5 306.5 413.7 268.4 413.5 109.5 279 32.4"/>
  <path d="M51.5,306.4l61.1,36.1-25,18.3c-17.8-11.7-41.1-19.9-56.2-35-14.1-14.1-23.2-38.3-31.4-56.1l29.3-54.9,66.3-38.5.9,31.6-44.2,26.1-19.5,36,18.6,36.4Z"/>
  <path d="M446.9,342.6l59.3-36,20.3-36.3-21.5-35.2c-8.6-14.1-27.7-19.7-43.5-28.9l.2-30.9,66.8,37.4,30,57.4-27.4,54.8-59.7,36.2-24.5-18.5Z"/>
  <polygon points="398 512.3 489.3 458.3 488.8 378.3 518.2 362.6 518.5 474.9 415.7 534.5 398 512.3"/>
  <polygon points="488.7 163.6 489.1 82.7 399.4 31.4 414.8 6.5 518.3 67.8 518.5 177.6 488.7 163.6"/>
  <polygon points="161.2 513.1 144.1 535.3 39.9 474.9 39.7 362.7 69.9 378.7 69 458.8 161.2 513.1"/>
  <polygon points="70.5 161.9 39.8 177.3 40.4 68.5 143.8 6.6 159.5 30.5 68.6 84 70.5 161.9"/>
</svg>