<?xml version="1.0" encoding="UTF-8"?>
<svg id="Layer_1" xmlns="http://www.w3.org/2000/svg" version="1.1" viewBox="0 0 841.9 595.3">
  <!-- Generator: Adobe Illustrator 30.3.0, SVG Export Plug-In . SVG Version: 2.1.3 Build 182)  -->
  <path d="M206.6,536.7l-.8-55,58.5,1.3v-14.6c-.1,0-58.1-3.1-58.1-3.1l.7-135.3-206.9.2v-125.9s55.9.4,55.9.4c4.6,24.8-9.7,47.7,14.2,70.8l2.1-71.3,134.3.3-.4-121.5,35.7-1.3,2.5-13.8-38.3-.8.5-67.1h131.1s-.5,98.2-.5,98.2c-13.8,1.2-18.9,2.1-28,7.8l28.2,3.5v95.2c0,0,205.2-.8,205.2-.8v126.2s-69.7-.4-69.7-.4l2.2-65-8.2-.4-11.5,65.9h-117.9s-.2,107.2-.2,107.2l-31.8,11.2,31.9,2.1v86s-130.8.1-130.8.1Z"/>
  <path d="M373.3,489.3c0,5.6-13.5,11.3-17.1,9.2v-134.4c0,0,17.3.2,17.3.2l-.2,125.1Z"/>
  <path d="M172.2,355.3l-141.3,10.3.5-17.3,144.4-1.5c10.1,2.6,6.4,11.6-3.6,8.5Z"/>
  <polygon points="185.7 176.3 168.4 175.8 169.4 58.7 186.2 58.5 185.7 176.3"/>
  <path d="M517.9,180.6c-54.7,9.6-104.9,8.5-158.3,2.6,52.8-10.9,104.1-16.1,158.3-2.6Z"/>
</svg>