<?xml version="1.0" encoding="UTF-8"?>
<svg id="Layer_1" xmlns="http://www.w3.org/2000/svg" version="1.1" viewBox="0 0 841.9 595.3">
  <!-- Generator: Adobe Illustrator 30.3.0, SVG Export Plug-In . SVG Version: 2.1.3 Build 182)  -->
  <path d="M202.3,446.6l-18.8-38.1-9.4,32.9-77.3-4.4v-42c0,0,31.7-.1,31.7-.1l-31.6-15.9,2.2-330.2,55.1,1.6,10.7,62.6,11.5-61.8c62.4,7.3,109.3,18.4,164.2,55.5l-.2,389.2c-41.5-25.3-84.7-41.2-138.1-49.2h0Z"/>
  <path d="M720,345.7l-22.1,9.8-1.7,49.7c8.8,2.5,23.7,12.5,23.6,22.7l-1.6,120.3-274.6,4.1-22.8,26.6-120,1-23-27-223.6-5.6c-1.2-5.5-1.7-15.3-5.4-16.7l-20-7.2-27.3-24.6,9.9-4.7c1.3-.6,4.6-2.2,3.2-2.7l-13.9-5.4L0,130.3l60.1-1.9-.6,77c0,3.9-1.8,14.4-5.5,16.2l-17.6,8.4,21.8,3.1.8,248c75.2-3.2,143.2,7.2,212.4,24.4,18,4.5,36.4,15.5,53.7,24.4,21.3,14.5,47.9,15.2,68.7-.3,73.8-39,179.2-52.3,266.9-47.1V128.9l57.2,2.1,2.2,214.7Z"/>
  <path d="M557,439.7c-66.8,8.2-118.9,19.2-179.8,55.3l-.2-237.3c11.9-19.1,15.6-43,0-62.1l-.3-89.6,48-28.4,1.7,238.7,66.8-57.5,67.7,55.5V50.3l58.7-2.1,1.2,304.2c-5.2,1.7-12.2,4.1-11,3.7,6.7,5.5,12.3,12.9,11.4,19-.8,5.1-8.1,11-14.7,17l10.2.8c2.8.2,4.6,7.9,4.7,10.8l-4.3,34.3-6.9-10.5-3-4.6c-.8-1.2-7.1,1.1-6.4,2.2l7.4,11.4c-9.1,3-25.1-.7-32.4-7.4-3.7,4.1-12.4,9.8-18.7,10.6h-.1Z"/>
  <path d="M530.8,231.3l-38.6-28.5-34.6,28.3-.9-168.2,74.3-12.3-2.1,57.8c0,2.7-9,9.7-7.3,11.4l8.4,8.8.8,102.6h0Z"/>
</svg>