<?xml version="1.0" encoding="UTF-8"?>
<svg id="Layer_1" xmlns="http://www.w3.org/2000/svg" version="1.1" viewBox="0 0 841.9 595.3">
  <!-- Generator: Adobe Illustrator 30.3.0, SVG Export Plug-In . SVG Version: 2.1.3 Build 182)  -->
  <path d="M277.5,416l.5,79.1c23.8-16.9,37.7-39.6,46.8-56.1l29.3,10.2-16.4,28.6c21.6,3.3,34.2-5.3,48.6-19l65.8-62.4c-3.2-19.3.8-39.9,21.7-47.2l-3.4-48-60.2-.4-.7-28.2,60.6.7,2.6-17.5,30.3.8.9,92.9c15.5,11.7,21,29.1,16.9,44.5-5.9,21.8-28.6,23.7-46.3,24.8l-82.7,83.4c-1.3,17.7-3.2,37.7-23.5,43.8-18.4,5.5-35.5-.8-46.6-18.6h-116.1c-11.9,15.8-29.8,27.7-49.5,17.5-16.6-8.6-25.2-28.7-16.4-46.8,9.3-19.2,29.2-26.7,53.5-15.3l-17.8-35,28.6-10.6c8.8,17.7,21.8,38.4,45,58.3l1-79.2,27.6-.2Z"/>
  <path d="M277.9,74.1l-.6,90.8h-27.6c0,0,0-88,0-88-22.7,16.4-36.6,38.6-46.8,59.7l-29.3-12.1,21.2-34.7c-19.9,7.8-39.3,8-49.9-7.2-12.5-17.9-8.9-38.9,5.9-50.6,17.8-14.1,40.2-8.1,52.8,12.4l119.3.7c11.2-16.3,29.2-26.5,47.1-16.6,16.5,9.2,26.4,28.8,16.9,46.6-9.7,18.1-26.8,25.1-52.2,16.1l18.8,32.8-29.4,11.5c-8.8-16.9-19.6-40.4-46-61.5Z"/>
  <path d="M309.1,400c-28.9-2-62.8-1.6-95.9.7l-9.6-.7c-2-.1-3,5.6-4,8.2-9,22.6-36.5,28.7-57,14.3-8.2,2.1-18.2,9.5-23.6,15.7l25.2,25.5-23.7,23.6-68.8-69.6c-19.5,2.2-37.1-3.8-44-19.6-7.1-16.2-1.6-37.5,14.1-46.7l.7-14.5h30.5c0,0,6.9,14.4,6.9,14.4,12.8,10,19.5,23,15.2,41.2l24.4,24.3,32.2-23.8c4.3-15.6,13.3-28.1,27.5-31.4,16.5-3.8,30.9,5.6,40.8,15.8,37.8-9.3,75.9-7.7,109.1-6.2v28.7Z"/>
  <path d="M126.7,272.9l.2,28.7H58.3c0,0-2.6,10.3-2.6,10.3l-32.4,1.2-.3-90.9c-17.4-10.7-24.1-30.8-15.4-48.7,7.5-15.6,27.7-22.4,44.9-17.8l66.2-71.3,20.5,25.6-26.7,33.1-36.1,36.3c2.9,24.5-9.9,41.3-30.7,47.6l12.4,5.4-.5,41.2,69.2-.6Z"/>
  <path d="M397.2,180.9c-8.6,6.8-13.2,24-21.5,28.2-18,9.2-34.4.5-43.5-11.3-10.9-14.1-8.3-33.3,3.1-45.2,12.2-12.7,31.9-14.2,48.9-1.6l24-15.4-25.2-27.5,24.3-24,67.8,71.4c21.6-1.6,44.5,6.3,46.6,30.5,1.7,20.4-13.6,38.5-34.8,39.1-22.7.6-37.2-17.1-35.7-42.1-4.6-8.1-15.2-18.4-23.8-26.1l-30.3,24Z"/>
  <path d="M419.6,409.7l-21.5,20.3c-.7-2.3-11.5-8.8-16.5-6.5-18,10.7-45.4,7.6-53-13.4-7.1-19.9,0-42.6,26.2-48.8l1.5-105.5,34.7-5.2-2.1,86.1c-.4,18.1-9.1,42.4,9.2,55.8l21.5,17.1Z"/>
  <polygon points="276.9 352.5 248 351.6 248 300.8 186.2 303 186 274.5 248 274.2 246.7 221.5 275.3 220.8 276.7 274.1 338.3 273.7 338.9 301.8 276 301.3 276.9 352.5"/>
  <path d="M132.2,181.3l-20.2-15.5,18.1-18.4c-1-5.6,4,0,10.7,1.6,15.6-8.9,39-11.2,51.1,4,10.7,13.4,11.8,34.4-2,49.9-7.6,8.6-21.2,11.5-34.4,7.4-10.4-3.2-17.7-12.5-23.4-29Z"/>
  <path d="M169.5,339.1l-26.6,10.1c-5.9-46.3-6.1-83.7.6-131.7l28.7,9c-4,39.3-7.4,68.7-2.7,112.6Z"/>
  <path d="M317.7,199.6c-36.5,4.2-70.2,4.6-110.2-.3l4.5-26.4c37.6,3.1,67.6,3,102,0l3.7,26.8Z"/>
  <path d="M385.7,227.3l.3,14.2c0,2.4-27.9,5.1-28.5.3l-1.3-9.4c-.5-4,12.5-.4,16.6-1.6l13.2-5.6c2.1-.6-.3-.5-.3,2.1Z"/>
  <polygon points="502.6 251.4 470.7 252 471.2 239.4 501.9 238.9 502.6 251.4"/>
</svg>