<?xml version="1.0" encoding="UTF-8"?>
<svg id="Layer_1" xmlns="http://www.w3.org/2000/svg" version="1.1" viewBox="0 0 841.9 595.3">
  <!-- Generator: Adobe Illustrator 30.3.0, SVG Export Plug-In . SVG Version: 2.1.3 Build 182)  -->
  <path d="M258.5,370.5l-24.5,22.7-12.7-45.7c-1.5-5.3,2.4-18.3,3.5-25-30.7,16-3,64.3-23.3,99.2-6.3,10.9-18.3,25.2-26.6,33.6l-66.1,67-49.7-48.8,19.9-53.8-32.4,42.2L.2,414.6l99.6-100.6,14.5,23.5,1.3-39,36.3-38.1-55.2-56.6,1.9-38.5-13.7,28.1-32.7-35.7L0,106.4l39.8-40.6,34.4,29.9c7.2,6.3,10.9,26.3,15.8,35.1l-2.9-39.3-35-37.3L106.3.3l121.1,120,31.9,33.5,63.3-63.9,3.3,38.5c-20.2,25.2-26.3,52.7-27.1,84l-20.5,42.1c15.8-14.7,26.9-28,38.7-46.5l2.2-43.7,34.7-37.7,3.8-72L411.8,0l45.6,46.4,20.7,20.2,41.4,41.3-61.6,63.2c-17.4,17.9-33.2,31.3-50.9,48.1l-42.7,40.6,32.1,32.6.5,53.3,18.3-35.1,103.8,103.2-98.8,99.8h-22.1l-88.8-90.5-51-52.6h.2Z"/>
</svg>